<svg xmlns="http://www.w3.org/2000/svg" width="150" height="40" viewBox="0 0 2351 514" version="1.1"><path d="M 1358.914 124.958 C 1354.392 126.324, 1350.946 129.185, 1348.832 133.329 C 1343.606 143.573, 1351.372 156, 1363 156 C 1374.855 156, 1382.612 143.199, 1376.907 133.049 C 1373.265 126.569, 1365.354 123.012, 1358.914 124.958 M 1402 207.304 L 1402 287.680 1403.978 295.415 C 1409.973 318.852, 1428.157 333.446, 1449.176 331.687 C 1456.091 331.109, 1469.996 327.450, 1470.005 326.208 C 1470.021 323.848, 1464.515 311, 1463.488 311 C 1462.804 311, 1460.629 311.675, 1458.654 312.500 C 1454.530 314.223, 1446.161 314.450, 1440.875 312.982 C 1436.159 311.672, 1428.678 303.682, 1425.180 296.218 L 1422.500 290.500 1422.205 252.750 L 1421.910 215 1439.455 215 L 1457 215 1457 206.500 L 1457 198 1439.513 198 L 1422.026 198 1421.763 162.750 L 1421.500 127.500 1411.750 127.214 L 1402 126.928 1402 207.304 M 1298 230 L 1298 332 1308 332 L 1318 332 1318 230 L 1318 128 1308 128 L 1298 128 1298 230 M 563.321 178.056 C 528.136 181.501, 501.374 204.288, 492.919 238 L 490.788 246.500 491.274 259 C 491.876 274.481, 494.758 284.308, 501.907 295.260 C 519.519 322.239, 549.405 335.343, 583.530 331.047 C 603.888 328.485, 618.201 321.830, 631.250 308.859 C 636.063 304.076, 640 299.697, 640 299.130 C 640 298.180, 626.710 289, 625.335 289 C 625.004 289, 621.530 292.042, 617.616 295.759 C 613.702 299.476, 608.426 303.733, 605.890 305.219 C 592.950 312.801, 573.935 315.773, 558.500 312.625 C 535.760 307.988, 518.206 291.356, 512.380 268.928 C 509.029 256.030, 510.824 238.605, 516.596 228.001 C 527.580 207.820, 548.186 195.967, 572.197 196.017 C 590.522 196.056, 605.685 202.033, 617.662 213.939 C 621.569 217.823, 625.089 221, 625.484 221 C 626.973 221, 639.982 212.457, 639.951 211.500 C 639.885 209.425, 631.159 199.315, 625.444 194.691 C 610.209 182.365, 585.869 175.847, 563.321 178.056 M 813.500 178.012 C 803.796 179.062, 798.773 180.529, 789.500 185.021 C 774.743 192.170, 762.961 203.814, 754.996 219.124 C 749.029 230.593, 746.838 240.032, 746.785 254.500 C 746.731 268.946, 748.481 277.194, 754.039 288.690 C 763.843 308.968, 780.497 323.129, 801.701 329.219 C 808.193 331.084, 811.846 331.447, 823.500 331.389 L 837.500 331.320 845.513 328.879 C 856.806 325.438, 866.041 319.937, 875.179 311.207 C 891.602 295.516, 899.117 277.725, 899.074 254.640 C 899.048 241.120, 896.735 230.983, 891.054 219.500 C 876.651 190.386, 846.782 174.408, 813.500 178.012 M 1180.810 178.020 C 1163.402 180.110, 1150.231 186.624, 1137.500 199.440 C 1124.829 212.196, 1118.479 223.765, 1115.444 239.628 C 1109.604 270.154, 1121.755 300.879, 1146.711 318.688 C 1167.861 333.780, 1200.724 336.192, 1224.614 324.406 C 1238.767 317.424, 1251.686 304.327, 1258.870 289.682 C 1265.025 277.135, 1266.436 270.684, 1266.457 255 C 1266.479 239.129, 1264.502 230.644, 1257.733 217.557 C 1251.789 206.062, 1237.713 192.003, 1226.287 186.147 C 1212.661 179.163, 1196.037 176.192, 1180.810 178.020 M 1559.500 178.012 C 1549.820 179.060, 1544.790 180.525, 1535.500 185 C 1517.639 193.606, 1502.853 210.749, 1496.258 230.500 L 1493.586 238.500 1493.551 255 L 1493.516 271.500 1496.619 280.194 C 1500.957 292.344, 1507.447 302.238, 1517.213 311.586 C 1531.385 325.153, 1546.604 331.343, 1566 331.429 C 1581.153 331.495, 1595.176 327.589, 1606.702 320.090 C 1612.580 316.265, 1620.585 308.387, 1623.114 303.938 L 1624.500 301.500 1625 317 L 1625.500 332.500 1635.750 332.785 L 1646 333.070 1646 289.993 C 1646 243.659, 1645.536 238.209, 1640.527 225.721 C 1631.493 203.198, 1610.158 184.553, 1587.730 179.581 C 1579.343 177.721, 1568.003 177.091, 1559.500 178.012 M 995.500 178.652 C 979.340 181.225, 964.264 188.628, 951.500 200.259 C 946.806 204.535, 944.486 207.769, 940.843 215.113 C 938.282 220.276, 935.132 227.650, 933.844 231.500 L 931.501 238.500 931.220 311.750 L 930.938 385 940.469 385 L 950 385 950 344.781 L 950 304.563 955.750 310.114 C 971.686 325.498, 984.128 330.899, 1005.500 331.710 C 1021.407 332.313, 1028.610 330.870, 1041.515 324.497 C 1060.471 315.134, 1075.224 297.224, 1081.208 276.309 C 1084.427 265.057, 1084.407 244.888, 1081.165 233.500 C 1075.641 214.100, 1060.847 195.916, 1043 186.593 C 1031.928 180.809, 1023.978 178.825, 1010.500 178.480 C 1003.900 178.312, 997.150 178.389, 995.500 178.652 M 714.698 183.433 C 691.664 192.905, 675.554 213.457, 669.573 241 L 667.945 248.500 668.222 290 L 668.500 331.500 678.099 331.784 L 687.698 332.069 688.316 292.284 C 688.954 251.160, 689.737 241.450, 693.151 232.325 C 697.434 220.879, 708.934 207.334, 717.862 203.221 C 722.242 201.203, 724.168 200.862, 728.379 201.357 L 733.534 201.963 738.182 194.231 C 743.414 185.527, 743.323 184.980, 736.260 182.573 C 729.553 180.288, 721.573 180.606, 714.698 183.433 M 1735.315 182.008 C 1720.483 184.176, 1709.538 189.610, 1698.763 200.153 C 1689.206 209.504, 1683.891 223.946, 1682.258 245 C 1681.810 250.775, 1681.602 272.728, 1681.796 293.785 L 1682.149 332.071 1691.824 331.785 L 1701.500 331.500 1702.124 287.500 C 1702.950 229.239, 1703.686 224.009, 1712.297 215.202 C 1721.355 205.939, 1732.349 201.838, 1748.005 201.880 C 1768.381 201.936, 1779.151 206.711, 1785.159 218.356 C 1789.727 227.209, 1790.197 232.737, 1790.721 283.750 L 1791.216 332 1800.681 332 L 1810.146 332 1809.728 281.250 L 1809.311 230.500 1807.570 223 C 1803.701 206.336, 1793.861 194.055, 1778.762 187.046 C 1774.218 184.937, 1768.115 182.713, 1765.201 182.105 C 1759.339 180.883, 1743.366 180.830, 1735.315 182.008 M 1353 258.500 L 1353 332 1363 332 L 1373 332 1373 258.500 L 1373 185 1363 185 L 1353 185 1353 258.500 M 808.034 198.601 C 791.057 203.163, 775.554 218.422, 769.418 236.609 C 764.005 252.654, 766.623 273.370, 775.873 287.682 C 791.236 311.452, 822.028 319.904, 848.169 307.527 C 858.579 302.598, 868.587 292.354, 873.598 281.500 C 877.403 273.255, 879.077 265.160, 879.077 255 C 879.077 237.519, 874.344 226.299, 861.537 213.417 C 853.104 204.937, 846.752 201.083, 836.869 198.453 C 830.010 196.627, 815.093 196.704, 808.034 198.601 M 992.272 198.437 C 979.755 201.470, 966.020 211.236, 958.644 222.348 C 947.275 239.477, 946.045 264.828, 955.652 284.031 C 962.374 297.467, 978.218 309.611, 993.500 313.039 C 999.944 314.485, 1013.107 314.478, 1019.500 313.025 C 1027.075 311.303, 1038.111 305.605, 1043.831 300.462 C 1050.798 294.198, 1058.118 282.934, 1061.060 273.950 C 1064.523 263.377, 1064.560 246.570, 1061.143 236.674 C 1058.277 228.373, 1050.508 216.498, 1044.462 211.176 C 1038.780 206.174, 1027.996 200.494, 1020.448 198.528 C 1013.467 196.710, 999.584 196.665, 992.272 198.437 M 1173.942 199.287 C 1144.806 209.220, 1128.264 239.879, 1135.851 269.883 C 1142.505 296.195, 1163.578 312.934, 1190.114 312.985 C 1200.770 313.006, 1207.317 311.579, 1216 307.344 C 1238.839 296.205, 1251.238 268.663, 1245.533 241.743 C 1241.420 222.332, 1224.516 204.308, 1205.068 198.595 C 1196.822 196.173, 1182.118 196.500, 1173.942 199.287 M 1554.691 198.501 C 1546.461 200.763, 1539.082 204.993, 1532.244 211.367 C 1519.242 223.486, 1513 237.426, 1513 254.342 C 1513 276.728, 1523.204 294.513, 1542.842 306.355 L 1550.893 311.210 1561.197 311.732 C 1567.454 312.049, 1573.763 311.782, 1577.263 311.053 C 1586.115 309.209, 1595.807 303.859, 1602.417 297.167 C 1609.867 289.626, 1613.185 284.740, 1618.770 273.086 L 1623.282 263.673 1622.717 253.086 C 1621.937 238.485, 1619.680 229.359, 1615.102 222.298 C 1607.620 210.757, 1594.100 200.874, 1581.972 198.079 C 1575.824 196.663, 1560.518 196.899, 1554.691 198.501" stroke="none" fill="#747b7c" fill-rule="evenodd"/><path d="M 1775.879 90.058 C 1768.909 91.708, 1761.325 97.010, 1754.812 104.787 C 1749.363 111.293, 1747 116.198, 1747 121.006 C 1747 127.435, 1750.735 130.285, 1767.123 136.360 C 1770.766 137.710, 1775.595 139.982, 1777.854 141.408 C 1780.112 142.833, 1782.248 144, 1782.600 144 C 1782.953 144, 1787.799 147.327, 1793.370 151.394 C 1808.938 162.758, 1834.279 190.181, 1854.456 217.500 C 1857.706 221.900, 1863.357 229.550, 1867.013 234.500 C 1870.670 239.450, 1874.424 245.167, 1875.355 247.203 C 1876.287 249.240, 1877.661 251.518, 1878.409 252.266 C 1879.157 253.014, 1880.678 255.397, 1881.789 257.563 C 1882.901 259.728, 1886.186 264.650, 1889.090 268.500 C 1893.975 274.976, 1897.793 280.673, 1904.769 291.893 C 1907.725 296.649, 1912.384 303.467, 1922.213 317.429 C 1925.671 322.340, 1929.404 327.965, 1930.509 329.929 C 1933.145 334.614, 1938.889 342.889, 1940.904 344.904 C 1943.719 347.720, 1951.560 358.250, 1957.356 367 C 1963.533 376.323, 1977.112 394.101, 1989.834 409.520 C 1990.750 410.631, 1992.824 413.331, 1994.443 415.520 C 1997.393 419.510, 2006.951 428.752, 2012.003 432.500 C 2013.485 433.600, 2017.078 436.300, 2019.986 438.500 C 2029.511 445.706, 2050.421 457.215, 2060.500 460.801 C 2063.800 461.975, 2073.700 464.154, 2082.500 465.643 L 2098.500 468.350 2119 468.125 C 2137.377 467.923, 2143.967 467.312, 2159 464.418 C 2164.458 463.367, 2186 456.078, 2191 453.591 C 2213.693 442.301, 2233.329 426.994, 2247.409 409.618 C 2254.685 400.640, 2266.566 383.409, 2267.722 380.161 C 2268.047 379.248, 2269.985 375.575, 2272.030 372 C 2274.074 368.425, 2276.058 364.375, 2276.438 363 C 2276.819 361.625, 2278.262 357.888, 2279.645 354.696 C 2281.926 349.434, 2284.480 338.897, 2287.087 324 C 2288.350 316.780, 2288.257 283.813, 2286.943 273 C 2284.789 255.274, 2277.131 230.611, 2271.194 222.272 C 2269.950 220.526, 2267.829 216.600, 2266.479 213.548 C 2265.129 210.497, 2263.589 208, 2263.055 208 C 2262.521 208, 2260.839 205.862, 2259.317 203.250 C 2254.951 195.755, 2244.120 182.043, 2237.530 175.666 C 2228.111 166.552, 2212.084 153.993, 2207.061 151.789 C 2204.552 150.688, 2201.150 149.107, 2199.500 148.275 C 2197.850 147.443, 2193.043 145.010, 2188.818 142.869 C 2184.593 140.727, 2177.169 137.825, 2172.320 136.420 C 2167.470 135.014, 2160.762 132.768, 2157.413 131.428 C 2147.878 127.614, 2140.862 126.682, 2121.500 126.660 C 2102.429 126.639, 2087.467 128.071, 2081.731 130.468 C 2079.820 131.266, 2073.336 133.285, 2067.323 134.954 C 2055.615 138.204, 2030.305 150.259, 2020 157.494 C 2009.808 164.651, 1997.130 176.117, 1992.289 182.558 C 1980.692 197.990, 1973 210.168, 1973 213.098 C 1973 215.604, 1978.918 225.055, 1987.027 235.500 C 1989.590 238.800, 1992.943 243.843, 1994.478 246.707 C 1998.316 253.862, 2000.526 256, 2004.084 256 C 2008.031 256, 2011.002 252.925, 2015.327 244.367 C 2021.192 232.762, 2030.464 220.835, 2041.801 210.312 C 2054.080 198.915, 2057.922 196.180, 2070.826 189.646 C 2079.958 185.022, 2084.202 183.845, 2105.552 180.018 C 2113.179 178.651, 2127.147 179.544, 2144.703 182.521 C 2157.866 184.753, 2160.551 185.918, 2179 197.399 C 2191.004 204.868, 2205.607 217.805, 2211.286 226 C 2213.002 228.475, 2214.932 231.038, 2215.577 231.696 C 2217.172 233.323, 2225.437 250.549, 2226.999 255.500 C 2227.693 257.700, 2228.571 259.950, 2228.950 260.500 C 2231.512 264.215, 2233.955 278.489, 2234.690 294.033 C 2235.379 308.603, 2233.221 326.425, 2229.488 337 C 2226.183 346.361, 2217.714 362.816, 2213.296 368.461 C 2202.734 381.955, 2186.922 396.404, 2179.093 399.716 C 2177.219 400.509, 2174.069 402.415, 2172.093 403.951 C 2167.811 407.280, 2150.512 414.749, 2144.069 416.052 C 2128.472 419.204, 2099.792 418.006, 2090.071 413.795 C 2087.557 412.707, 2082.350 410.683, 2078.500 409.298 C 2074.650 407.913, 2070.150 405.769, 2068.500 404.532 C 2066.850 403.296, 2063.250 401.135, 2060.500 399.731 C 2052.097 395.439, 2026.105 372.133, 2012.714 356.882 C 1997.030 339.020, 1988.087 328.165, 1982.205 319.851 C 1979.617 316.194, 1972.908 306.744, 1967.296 298.851 C 1961.683 290.958, 1954.483 280.729, 1951.296 276.120 C 1948.108 271.510, 1944.986 267.203, 1944.357 266.548 C 1941.906 263.994, 1932.818 249.806, 1931.356 246.251 C 1930.507 244.188, 1924.117 234.031, 1917.156 223.680 C 1910.195 213.329, 1901.552 199.829, 1897.948 193.680 C 1894.345 187.531, 1889.015 179.350, 1886.103 175.500 C 1883.191 171.650, 1879.839 167.206, 1878.654 165.625 C 1877.469 164.045, 1875.375 160.810, 1874 158.437 C 1870.950 153.174, 1863.160 142.650, 1856.726 135.101 C 1854.100 132.021, 1850.050 127.271, 1847.726 124.547 C 1841.355 117.080, 1831.250 107.427, 1826.620 104.385 C 1824.354 102.896, 1820.700 100.459, 1818.500 98.970 C 1812.079 94.625, 1804.897 91.333, 1799.201 90.124 C 1793.121 88.834, 1781.192 88.800, 1775.879 90.058 M 219 104.164 C 212.006 105.142, 192.948 108.359, 184 110.072 C 177.929 111.234, 157.499 119.179, 152 122.516 C 150.075 123.684, 146.511 125.423, 144.081 126.380 C 141.650 127.337, 137.439 130.118, 134.722 132.560 C 132.006 135.002, 129.410 137, 128.953 137 C 128.496 137, 126.127 138.688, 123.688 140.750 C 121.250 142.813, 117.320 146.075, 114.956 148 C 96.807 162.779, 78.887 186.390, 73.140 203.094 C 72.108 206.092, 70.133 210.785, 68.750 213.522 C 67.367 216.260, 65.260 222.775, 64.068 228 C 62.877 233.225, 61.450 239.208, 60.897 241.295 C 60.345 243.382, 59.488 248.332, 58.992 252.295 C 58.497 256.258, 57.571 262.875, 56.935 267 C 55.073 279.082, 57.371 302.781, 61.978 319 C 62.994 322.575, 64.320 327.921, 64.924 330.879 C 65.529 333.837, 67.158 338.514, 68.543 341.272 C 69.928 344.030, 72.416 349.542, 74.073 353.520 C 76.978 360.499, 84 371.937, 88.043 376.277 C 89.120 377.432, 90 378.679, 90 379.048 C 90 379.418, 92.894 383.201, 96.431 387.456 C 101.940 394.081, 107.507 399.009, 117.381 406 C 118.547 406.825, 123.778 410.704, 129.007 414.619 C 163.275 440.279, 211.379 451.234, 258.758 444.168 C 267.149 442.916, 276.374 441.054, 279.258 440.028 C 299.796 432.724, 305.542 430.160, 314.679 424.218 C 322.567 419.089, 331.505 412.697, 336.500 408.613 C 343.744 402.692, 361.813 384.262, 363.422 381.154 C 364.177 379.694, 366.417 376.092, 368.398 373.150 C 374.251 364.456, 373.375 357.338, 365 345.519 C 363.075 342.802, 360.595 339.636, 359.488 338.482 C 358.381 337.329, 354.848 332.736, 351.637 328.275 C 347.991 323.212, 344.897 319.940, 343.399 319.564 C 338.848 318.422, 336.220 319.949, 333.040 325.583 C 331.368 328.546, 330 331.429, 330 331.990 C 330 332.552, 326.496 337.621, 322.214 343.256 C 317.931 348.890, 313.694 354.663, 312.799 356.085 C 308.442 363.001, 290.201 378.344, 280.500 383.252 C 275.645 385.708, 260.096 391.021, 252 392.990 C 241.320 395.588, 231.855 396.127, 217.461 394.958 C 206.979 394.107, 202.647 393.197, 191.204 389.440 C 174.806 384.056, 174.994 384.143, 162.973 376.447 C 152.449 369.710, 140.736 359.332, 138.287 354.574 C 137.417 352.883, 135.242 349.700, 133.453 347.500 C 128.742 341.705, 120.433 324.830, 117.450 315 C 112.558 298.879, 111.353 267.501, 115.030 252 C 119.788 231.945, 125.247 219.423, 136.056 203.774 C 141.776 195.492, 152.053 184, 153.738 184 C 154.168 184, 155.773 182.838, 157.305 181.418 C 158.836 179.999, 164.478 176.231, 169.843 173.045 C 186.018 163.441, 206.264 158.084, 226.500 158.053 C 242.283 158.030, 251.414 159.939, 266.035 166.321 C 277.191 171.190, 290.663 178.272, 292 179.970 C 292.275 180.320, 294.300 181.669, 296.500 182.969 C 298.700 184.269, 303.425 188.304, 307 191.935 C 323.349 208.544, 335.954 221.993, 340.333 227.500 C 342.957 230.800, 346.542 235.263, 348.302 237.417 C 350.061 239.571, 352.578 243.171, 353.895 245.417 C 355.212 247.663, 357.071 250.400, 358.025 251.500 C 360.907 254.821, 377.597 280.196, 379.896 284.750 C 381.075 287.087, 382.409 289, 382.860 289 C 383.310 289, 384.219 290.012, 384.879 291.250 C 385.539 292.488, 386.630 294.400, 387.302 295.500 C 387.975 296.600, 389.851 299.750, 391.470 302.500 C 400.215 317.346, 415.514 340.065, 420.697 345.901 C 422.455 347.880, 425.353 352.425, 427.136 356 C 428.919 359.575, 430.684 362.725, 431.058 363 C 431.432 363.275, 432.904 365.813, 434.330 368.639 C 435.755 371.466, 437.576 374.433, 438.376 375.233 C 439.176 376.033, 441.732 379.795, 444.057 383.593 C 450.274 393.751, 459.803 407.859, 463.919 413 C 465.900 415.475, 469.065 419.750, 470.952 422.500 C 472.839 425.250, 477.784 431.352, 481.941 436.061 C 486.099 440.769, 491.300 446.817, 493.500 449.502 C 498.635 455.768, 501.233 458.101, 514 467.910 C 527.538 478.313, 534.082 481.515, 546 483.572 C 564.959 486.843, 576.896 483.919, 587.381 473.434 C 596.973 463.841, 601.141 453.869, 598.005 448.010 C 596.898 445.942, 591.613 443, 589.003 443 C 586.251 443, 577.105 439.567, 567.839 435.055 C 554.601 428.609, 530.151 406.183, 515.629 387.165 C 508.912 378.369, 495.869 359.582, 489.739 349.873 C 485.932 343.845, 482.375 338.978, 479.525 335.903 C 478.202 334.474, 474.623 329.524, 471.573 324.903 C 468.523 320.281, 464.634 314.475, 462.930 312 C 461.227 309.525, 457.548 303.900, 454.756 299.500 C 448.368 289.433, 441.180 278.609, 434.607 269.157 C 431.798 265.118, 428.645 260.393, 427.600 258.657 C 422.537 250.245, 410.125 231.925, 406.296 227.211 C 403.933 224.302, 402 221.563, 402 221.124 C 402 220.263, 392.052 207.232, 383.967 197.500 C 381.225 194.200, 378.139 190.150, 377.110 188.500 C 372.807 181.605, 354.792 161.423, 345.409 152.986 C 339.591 147.755, 326.816 137.567, 323.450 135.474 C 321.827 134.465, 319.150 132.396, 317.500 130.875 C 313.047 126.771, 298.482 118.786, 290.500 116.072 C 286.650 114.764, 282.335 113.113, 280.912 112.404 C 275.810 109.865, 232.287 102.452, 226.500 103.136 C 225.950 103.202, 222.575 103.664, 219 104.164" stroke="none" fill="#cccc6c" fill-rule="evenodd"/></svg>