<svg xmlns="http://www.w3.org/2000/svg" width="327" height="72" viewBox="0 0 2595 1200" version="1.1"><path d="M 1513.339 459.151 C 1510.385 459.812, 1508.011 461.349, 1505.152 464.451 C 1498.734 471.413, 1498.358 479.389, 1504.105 486.645 C 1505.784 488.765, 1508.585 491.269, 1510.329 492.208 C 1513.964 494.166, 1522.097 494.531, 1525.316 492.880 C 1529.674 490.645, 1533.990 485.546, 1535.584 480.748 C 1537.094 476.201, 1537.091 475.527, 1535.546 471.480 C 1531.573 461.079, 1523.859 456.796, 1513.339 459.151 M 1561.450 462.269 C 1561.168 463.004, 1561.084 503.407, 1561.263 552.053 C 1561.625 650.336, 1561.426 647.289, 1568.422 661.508 C 1577.829 680.628, 1596.398 691.552, 1616 689.498 C 1622.996 688.765, 1638 684.168, 1638 682.758 C 1638 680.381, 1631.550 666, 1630.484 666 C 1629.806 666, 1627.338 666.675, 1625 667.500 C 1620.129 669.219, 1610.190 669.458, 1604.886 667.985 C 1600.929 666.886, 1592.408 658.624, 1589.569 653.134 C 1588.645 651.346, 1587.013 646.463, 1585.944 642.282 C 1584.189 635.420, 1584 631.050, 1584 597.362 L 1584 560.043 1603.250 559.772 L 1622.500 559.500 1622.500 550 L 1622.500 540.500 1603.262 540.228 L 1584.023 539.957 1583.762 500.728 L 1583.500 461.500 1572.732 461.216 C 1564.463 460.998, 1561.844 461.242, 1561.450 462.269 M 1446 575.967 L 1446 690 1456.981 690 C 1467.541 690, 1467.983 689.914, 1468.505 687.750 C 1468.804 686.513, 1468.925 635.325, 1468.774 574 L 1468.500 462.500 1457.250 462.217 L 1446 461.934 1446 575.967 M 627.140 518.107 C 592.321 521.202, 562.634 543.652, 551.338 575.429 C 547.263 586.891, 545.810 607.069, 548.059 620.935 C 551.685 643.281, 566.466 663.989, 588.138 677.083 C 618.692 695.544, 665.066 693.402, 694.378 672.174 C 703.018 665.918, 713 655.177, 713 652.138 C 713 651.558, 710.862 649.855, 708.250 648.353 C 705.638 646.852, 702.228 644.583, 700.673 643.311 C 697.383 640.621, 695.183 640.360, 694.339 642.560 C 693.217 645.482, 678.298 657.488, 671.159 661.213 C 661.608 666.197, 654.621 667.953, 641.480 668.672 C 627.046 669.461, 616.624 667.468, 605.062 661.705 C 566.875 642.673, 557.141 590.938, 585.854 559.613 C 587.309 558.025, 591.913 554.172, 596.084 551.051 C 613.703 537.865, 639.871 534.725, 663.758 542.930 C 673.594 546.309, 681.141 551.265, 689.372 559.750 C 692.707 563.188, 696.134 566, 696.987 566 C 699.176 566, 713 556.864, 713 555.416 C 713 553.044, 704.208 542.347, 697.985 537.147 C 685.716 526.895, 668.005 519.998, 648.919 518.040 C 643.347 517.468, 638.273 517.062, 637.644 517.138 C 637.015 517.213, 632.288 517.649, 627.140 518.107 M 906.268 518.009 C 894.983 519.231, 889.214 520.850, 879.500 525.520 C 857.659 536.020, 839.939 557.822, 833.995 581.505 C 832.216 588.591, 831.743 593.259, 831.765 603.500 C 831.803 620.592, 833.594 628.674, 840.414 642.519 C 844.809 651.439, 847.385 655.186, 853.945 662.198 C 865.929 675.007, 874.389 680.536, 889.602 685.502 C 920.985 695.746, 955.364 687.586, 977.500 664.638 C 989.108 652.604, 998.128 635.579, 1000.932 620.408 C 1002.462 612.131, 1002.249 593.286, 1000.534 585.315 C 993.330 551.820, 966.643 524.869, 935 519.132 C 926.648 517.618, 914.327 517.136, 906.268 518.009 M 1314.891 518.094 C 1287.095 520.810, 1262.934 538.398, 1248.954 566.092 C 1243.211 577.468, 1241.658 585.525, 1241.648 604 C 1241.639 619.079, 1241.870 621.257, 1244.328 629.297 C 1248.840 644.051, 1257.798 658.076, 1269.577 668.828 C 1292.321 689.589, 1327.328 695.593, 1357.796 683.958 C 1389.656 671.792, 1411.911 638.741, 1411.973 603.500 C 1412.012 581.258, 1402.914 558.982, 1387.133 542.680 C 1368.543 523.476, 1344.287 515.221, 1314.891 518.094 M 1737.110 518.081 C 1708.759 520.815, 1684.971 537.992, 1671.442 565.500 C 1664.194 580.238, 1662.582 588.505, 1663.272 607.402 C 1663.868 623.748, 1665.331 630.084, 1671.233 641.885 C 1679.683 658.783, 1693.022 672.810, 1707.924 680.471 C 1714.826 684.020, 1728.009 687.954, 1736.749 689.075 C 1750.441 690.831, 1766.677 687.934, 1782.500 680.911 C 1790.772 677.240, 1802.825 666.966, 1808.206 659 C 1809.826 656.603, 1809.897 657.162, 1809.948 672.628 C 1809.988 685.160, 1810.311 689.013, 1811.396 689.914 C 1812.310 690.672, 1816.370 690.973, 1823.146 690.786 L 1833.500 690.500 1833.500 639.500 C 1833.500 582.349, 1833.670 583.981, 1825.963 567.299 C 1815.929 545.580, 1796.067 527.691, 1774.693 521.122 C 1769.279 519.458, 1748.226 516.534, 1746 517.137 C 1745.725 517.212, 1741.724 517.637, 1737.110 518.081 M 1105.342 519.409 C 1095.408 521.309, 1088.748 523.625, 1080 528.221 C 1071.306 532.788, 1068.955 534.503, 1059.658 543.053 C 1053.821 548.422, 1052.015 550.965, 1047.352 560.387 C 1036.837 581.636, 1037.592 573.662, 1037.240 667.250 L 1036.933 749 1047.967 749 L 1059 749 1059 704.584 L 1059 660.168 1065.250 665.969 C 1075.302 675.300, 1080.926 679.162, 1090.500 683.308 C 1102.123 688.342, 1110.025 689.961, 1123.066 689.983 C 1136.242 690.004, 1142.914 688.793, 1153.879 684.387 C 1164.345 680.181, 1170.684 676.090, 1179.582 667.799 C 1199.476 649.260, 1209.181 625.441, 1207.613 599 C 1206.739 584.281, 1204.276 575.312, 1197.450 562 C 1188.522 544.588, 1166.137 526.455, 1146.783 520.956 C 1137.268 518.253, 1115.615 517.445, 1105.342 519.409 M 796.981 523.318 C 776.379 531.795, 763.298 544.579, 753.249 566.059 C 744.458 584.850, 744.500 584.495, 744.500 640 L 744.500 688.500 755.750 688.783 L 767 689.066 767.019 657.283 C 767.039 623.843, 768.232 595.212, 769.988 586.022 C 771.854 576.256, 778.952 564.347, 788.846 554.383 C 797.054 546.116, 800.587 544.488, 810.190 544.547 L 817.879 544.594 819.594 540.791 C 820.537 538.700, 821.947 536.459, 822.728 535.811 C 823.508 535.164, 825.016 532.928, 826.080 530.844 L 828.013 527.055 825.497 525.406 C 817.975 520.477, 806.015 519.601, 796.981 523.318 M 1936.500 521.645 C 1925.565 522.906, 1912.761 527.078, 1905.500 531.747 C 1898.700 536.120, 1889.361 544.828, 1885.616 550.288 C 1881.527 556.250, 1878.861 563.438, 1875.708 577 C 1873.582 586.147, 1873.500 588.414, 1873.500 638 L 1873.500 689.500 1883.918 689.787 C 1891.580 689.998, 1894.552 689.733, 1895.153 688.787 C 1895.602 688.079, 1895.976 667.874, 1895.985 643.886 C 1895.994 618.253, 1896.424 598.052, 1897.028 594.886 C 1897.593 591.924, 1898.464 585.581, 1898.963 580.791 C 1899.462 576.001, 1900.738 570.151, 1901.799 567.791 C 1906.690 556.914, 1922.778 546.820, 1937.925 545.125 C 1960.895 542.556, 1980.890 549.024, 1987.001 561.001 C 1994.180 575.074, 1994.930 583.006, 1994.971 645.284 L 1995 690.068 2005.750 689.784 L 2016.500 689.500 2016.490 634.500 L 2016.480 579.500 2013.764 568.769 C 2010.136 554.437, 2006.236 547.012, 1998.115 538.982 C 1990.513 531.463, 1977.863 524.729, 1967 522.418 C 1961.157 521.174, 1944.292 520.747, 1936.500 521.645 M 1507.473 526.216 C 1507.204 526.922, 1507.100 563.950, 1507.242 608.500 L 1507.500 689.500 1518.500 689.500 L 1529.500 689.500 1529.500 607.500 L 1529.500 525.500 1518.732 525.216 C 1510.675 525.003, 1507.840 525.255, 1507.473 526.216 M 907.381 539.942 C 883.667 543.682, 863.180 562.201, 856.425 586 C 853.880 594.970, 854.039 612.782, 856.754 622.655 C 861.376 639.463, 873.035 653.780, 888.351 661.454 C 898.797 666.687, 904.579 668, 917.189 668 C 935.378 668, 950.137 661.806, 961.773 649.289 C 968.847 641.681, 976.312 627.746, 978.068 618.874 C 979.422 612.033, 979.440 596.055, 978.101 589.300 C 976.504 581.241, 969.221 567.402, 963.064 560.725 C 956.931 554.075, 948.311 547.288, 942.801 544.771 C 933.634 540.583, 917.373 538.366, 907.381 539.942 M 1113.017 540.141 C 1103.015 541.278, 1094.244 544.321, 1086.972 549.177 C 1074.775 557.322, 1065.873 568.590, 1061.307 581.662 C 1058.796 588.854, 1058.569 590.737, 1058.564 604.500 C 1058.558 618.166, 1058.798 620.218, 1061.268 627.578 C 1067.172 645.174, 1082.614 660.393, 1100.639 666.380 C 1112.333 670.264, 1129.690 670.247, 1141.500 666.339 C 1149.307 663.755, 1160.967 656.084, 1167.092 649.500 C 1173.410 642.708, 1177.780 635.448, 1181.600 625.396 C 1184.712 617.207, 1185.903 601.143, 1184.114 591.500 C 1182.589 583.284, 1175.382 568.786, 1169.093 561.283 C 1160.115 550.572, 1145.068 542.136, 1132 540.488 C 1123.012 539.354, 1120.369 539.306, 1113.017 540.141 M 1316.226 540.146 C 1295.015 543.187, 1274.737 560.421, 1267.274 581.750 C 1264.806 588.804, 1264.562 590.803, 1264.562 604 C 1264.562 617.291, 1264.795 619.167, 1267.352 626.500 C 1270.640 635.924, 1277.484 646.402, 1284.576 652.871 C 1290.925 658.660, 1304.600 665.631, 1312.500 667.105 C 1319.779 668.463, 1339.860 667.672, 1345.500 665.805 C 1364.669 659.460, 1378.679 644.701, 1386.607 622.500 C 1389.146 615.390, 1389.151 592.636, 1386.616 585.500 C 1377.558 560.006, 1358.856 543.429, 1335.311 540.024 C 1327.467 538.890, 1324.871 538.907, 1316.226 540.146 M 1738.743 540 C 1716.173 542.891, 1694.428 562.200, 1688.041 585.020 C 1685.905 592.653, 1685.063 610.028, 1686.514 616.530 C 1689.344 629.205, 1696.221 641.902, 1704.703 650.109 C 1707.891 653.194, 1714.506 658.103, 1719.403 661.019 L 1728.305 666.319 1740.403 666.783 C 1754.705 667.332, 1761.923 665.859, 1771.966 660.341 C 1784.677 653.356, 1794.500 641.715, 1803.143 623.392 C 1807.662 613.812, 1807.999 612.552, 1807.992 605.298 C 1807.982 595.189, 1803.808 575.055, 1800.582 569.550 C 1791.462 553.987, 1774.057 542.251, 1756.766 540.005 C 1748.633 538.949, 1746.948 538.949, 1738.743 540" stroke="none" fill="#747b7c" fill-rule="evenodd"/><path d="M 1977.500 420.101 C 1969.609 421.878, 1962.407 426.909, 1954.210 436.372 C 1948.322 443.170, 1946.049 448.299, 1946.022 454.849 C 1946.003 459.511, 1946.383 460.555, 1948.986 462.987 C 1950.628 464.521, 1953.216 466.087, 1954.736 466.466 C 1956.256 466.845, 1958.175 467.734, 1959 468.440 C 1959.825 469.146, 1964.080 470.941, 1968.456 472.430 C 1972.831 473.918, 1978.366 476.455, 1980.756 478.068 C 1983.145 479.681, 1985.277 481, 1985.492 481 C 1986.643 481, 1999 489.364, 1999 490.143 C 1999 490.649, 1999.787 491.353, 2000.750 491.708 C 2001.713 492.063, 2003.935 493.431, 2005.689 494.748 C 2010.695 498.509, 2043.225 533.061, 2046.933 538.557 C 2048.768 541.276, 2051.109 544.088, 2052.135 544.807 C 2053.161 545.525, 2054 546.658, 2054 547.324 C 2054 547.990, 2056.025 550.648, 2058.500 553.231 C 2060.975 555.814, 2063 558.224, 2063 558.586 C 2063 558.949, 2066.375 563.693, 2070.500 569.129 C 2074.625 574.564, 2078 579.375, 2078 579.819 C 2078 580.263, 2079.380 581.948, 2081.067 583.563 C 2082.754 585.178, 2085.426 589.200, 2087.003 592.500 C 2088.581 595.800, 2090.816 599.509, 2091.969 600.743 C 2093.122 601.977, 2094.927 604.997, 2095.980 607.454 C 2097.034 609.912, 2099.044 612.921, 2100.448 614.142 C 2101.852 615.362, 2103 616.792, 2103 617.319 C 2103 617.845, 2105.451 621.477, 2108.447 625.388 C 2111.443 629.300, 2114.607 634.207, 2115.478 636.294 C 2116.350 638.380, 2117.746 640.349, 2118.581 640.669 C 2119.415 640.990, 2121.422 643.874, 2123.040 647.080 C 2124.659 650.286, 2129.361 657.415, 2133.491 662.923 C 2137.620 668.431, 2141.861 674.473, 2142.915 676.349 C 2143.969 678.226, 2146.444 682.006, 2148.416 684.750 C 2150.387 687.494, 2152 690.053, 2152 690.436 C 2152 690.820, 2153.125 692.608, 2154.500 694.411 C 2155.875 696.214, 2157.019 698.096, 2157.042 698.594 C 2157.066 699.092, 2158.416 700.604, 2160.042 701.953 C 2161.669 703.302, 2163 704.911, 2163 705.527 C 2163 706.144, 2164.792 708.415, 2166.983 710.574 C 2169.174 712.733, 2170.974 714.813, 2170.983 715.196 C 2170.992 715.579, 2173.925 720.024, 2177.500 725.075 C 2181.075 730.126, 2184 734.845, 2184 735.561 C 2184 736.278, 2185.295 737.786, 2186.877 738.912 C 2188.459 740.039, 2190.481 742.494, 2191.370 744.367 C 2192.259 746.241, 2194.340 749.223, 2195.993 750.993 C 2197.647 752.763, 2199.013 754.501, 2199.030 754.856 C 2199.046 755.210, 2200.860 757.525, 2203.060 760 C 2205.261 762.475, 2209.142 767.200, 2211.685 770.500 C 2214.229 773.800, 2216.802 776.950, 2217.405 777.500 C 2219.197 779.137, 2223.598 785.366, 2224.292 787.250 C 2224.647 788.212, 2225.492 789, 2226.170 789 C 2226.848 789, 2229.225 790.927, 2231.451 793.282 C 2233.678 795.638, 2237.525 799.026, 2240 800.811 C 2242.475 802.597, 2246.975 806.051, 2250 808.488 C 2253.025 810.925, 2256.063 812.937, 2256.750 812.959 C 2257.438 812.982, 2258 813.415, 2258 813.922 C 2258 814.429, 2261.330 816.425, 2265.401 818.357 C 2269.471 820.289, 2273.103 822.357, 2273.471 822.954 C 2274.395 824.448, 2282.202 828.280, 2290 831.066 C 2293.575 832.343, 2296.766 833.774, 2297.091 834.246 C 2297.416 834.717, 2303.266 835.964, 2310.091 837.016 C 2316.916 838.067, 2325.533 839.434, 2329.240 840.053 C 2332.947 840.672, 2339.247 841.287, 2343.240 841.420 C 2354.296 841.789, 2389.790 840.232, 2396 839.106 C 2399.025 838.558, 2404.145 837.649, 2407.377 837.086 C 2410.609 836.524, 2414.276 835.394, 2415.525 834.576 C 2416.774 833.757, 2421.779 831.968, 2426.648 830.598 C 2437.527 827.538, 2442.457 825.516, 2446.438 822.480 C 2448.123 821.194, 2451.555 819.262, 2454.064 818.187 C 2456.573 817.111, 2459.294 815.563, 2460.112 814.745 C 2460.929 813.928, 2462.926 812.571, 2464.549 811.729 C 2470.079 808.860, 2493.784 788.826, 2498 783.458 C 2499.375 781.707, 2503.926 776.050, 2508.114 770.887 C 2512.301 765.724, 2516.966 759.250, 2518.481 756.500 C 2519.996 753.750, 2522.307 750.426, 2523.617 749.114 C 2524.928 747.801, 2526 746.233, 2526 745.628 C 2526 743.961, 2531.261 733.765, 2533.267 731.543 C 2534.239 730.467, 2535.498 727.767, 2536.064 725.543 C 2537.289 720.734, 2538.569 717.253, 2541.628 710.423 C 2542.878 707.630, 2544.341 702.680, 2544.878 699.423 C 2545.416 696.165, 2546.585 689.450, 2547.478 684.500 C 2549.350 674.113, 2549.633 638.531, 2547.963 623.506 C 2546.871 613.687, 2543.332 595.659, 2541.993 593.101 C 2540.585 590.411, 2535.116 575.678, 2534.408 572.669 C 2534.042 571.112, 2533.062 569.577, 2532.231 569.258 C 2531.400 568.939, 2528.964 564.931, 2526.818 560.352 C 2524.671 555.772, 2522.074 551.575, 2521.044 551.024 C 2520.015 550.473, 2518.153 547.766, 2516.907 545.009 C 2515.661 542.251, 2513.597 539.311, 2512.321 538.474 C 2511.044 537.638, 2510 536.480, 2510 535.901 C 2510 532.344, 2492.233 513.257, 2479.337 502.962 C 2475.398 499.816, 2471.017 496.176, 2469.601 494.872 C 2468.186 493.567, 2464.209 491.118, 2460.764 489.428 C 2457.319 487.739, 2448.875 483.535, 2442 480.086 C 2434.301 476.225, 2425.877 472.875, 2420.065 471.363 C 2414.875 470.014, 2407.877 467.636, 2404.512 466.079 C 2395.348 461.837, 2386.170 460.636, 2363 460.647 C 2335.762 460.659, 2318.266 462.884, 2312.500 467.070 C 2311.950 467.470, 2306.550 468.996, 2300.500 470.463 C 2294.450 471.930, 2287.925 474.122, 2286 475.334 C 2284.075 476.546, 2281.150 478.133, 2279.500 478.861 C 2276.125 480.350, 2273.908 481.452, 2262.500 487.307 C 2244.919 496.330, 2222.053 516.528, 2213.034 531 C 2211.149 534.025, 2208.120 538.189, 2206.303 540.253 C 2204.486 542.317, 2203 544.486, 2203 545.073 C 2203 545.660, 2201.650 548.102, 2200 550.500 C 2196.521 555.557, 2196.265 558.155, 2198.883 561.846 C 2199.919 563.306, 2201.704 566.175, 2202.851 568.223 C 2203.997 570.271, 2208.017 575.896, 2211.783 580.723 C 2215.549 585.550, 2220.338 592.751, 2222.426 596.726 C 2225.760 603.071, 2226.634 604.028, 2229.604 604.586 C 2237.145 606, 2240.798 603.126, 2245.500 592.079 C 2247.150 588.202, 2248.819 585.023, 2249.208 585.015 C 2249.597 585.007, 2251.151 582.862, 2252.661 580.250 C 2257.196 572.405, 2265.599 562.439, 2273.183 555.911 C 2277.116 552.527, 2281.420 548.465, 2282.749 546.887 C 2284.078 545.308, 2286.706 543.284, 2288.591 542.390 C 2290.475 541.496, 2293.026 539.700, 2294.259 538.399 C 2295.491 537.099, 2296.858 536.027, 2297.296 536.017 C 2298.776 535.985, 2313.219 528.923, 2314.573 527.570 C 2315.311 526.832, 2321.447 525.260, 2328.208 524.078 C 2334.968 522.896, 2343.179 521.454, 2346.452 520.874 C 2353.361 519.650, 2364.657 520.295, 2384.500 523.046 C 2398.801 525.028, 2404.917 526.366, 2405.930 527.734 C 2406.243 528.157, 2410.309 530.488, 2414.965 532.914 C 2419.621 535.339, 2424.298 538.131, 2425.357 539.118 C 2426.417 540.106, 2429.196 541.812, 2431.533 542.911 C 2433.870 544.009, 2436.684 546.054, 2437.785 547.454 C 2438.887 548.854, 2440.262 550, 2440.842 550 C 2443.044 550, 2460.233 567.565, 2464.985 574.670 C 2467.716 578.753, 2470.636 582.779, 2471.475 583.618 C 2472.314 584.457, 2473.002 585.898, 2473.004 586.821 C 2473.006 587.745, 2473.834 589.855, 2474.844 591.512 C 2475.855 593.169, 2477.500 596.994, 2478.501 600.012 C 2479.502 603.030, 2481.068 606.850, 2481.980 608.500 C 2487.831 619.084, 2490.620 651.600, 2487.598 674 C 2485.602 688.792, 2482.996 698.034, 2478.625 705.813 C 2476.867 708.941, 2474.649 713.525, 2473.695 716 C 2472.741 718.475, 2470.282 722.703, 2468.230 725.397 C 2466.179 728.090, 2464.050 730.957, 2463.500 731.770 C 2461.235 735.114, 2442.390 755, 2441.485 755 C 2441.269 755, 2438.081 757.250, 2434.403 760 C 2430.724 762.750, 2427.166 765, 2426.496 765 C 2425.827 765, 2423.529 766.195, 2421.390 767.656 C 2412.090 774.007, 2393.767 782, 2388.509 782 C 2387.349 782, 2385.838 782.563, 2385.150 783.250 C 2384.228 784.172, 2378.287 784.500, 2362.501 784.500 C 2346.715 784.500, 2340.773 784.172, 2339.851 783.250 C 2339.163 782.563, 2337.671 782, 2336.536 782 C 2335.401 782, 2332.003 781.060, 2328.986 779.912 C 2325.969 778.764, 2321.025 777.030, 2318 776.060 C 2312.629 774.336, 2306.007 771.030, 2303 768.570 C 2302.175 767.895, 2299.025 766.160, 2296 764.714 C 2292.975 763.269, 2287.543 759.479, 2283.929 756.293 C 2274.800 748.245, 2259.221 734.770, 2258.243 734.076 C 2257.301 733.407, 2231.006 703.887, 2223.191 694.724 C 2220.271 691.301, 2216.221 686.025, 2214.191 683 C 2212.161 679.975, 2209.713 676.912, 2208.750 676.193 C 2207.787 675.475, 2206.997 674.350, 2206.993 673.693 C 2206.989 673.037, 2204.320 669.154, 2201.063 665.064 C 2197.805 660.975, 2194.545 656.475, 2193.820 655.064 C 2193.094 653.654, 2191.037 650.968, 2189.250 649.097 C 2187.463 647.225, 2186 645.303, 2186 644.825 C 2186 643.072, 2167.556 616.969, 2165.750 616.167 C 2165.338 615.983, 2165 615.230, 2165 614.494 C 2165 613.757, 2163.735 611.882, 2162.188 610.327 C 2160.642 608.772, 2158.666 606.150, 2157.797 604.500 C 2155.797 600.703, 2150.880 591.566, 2148.380 587 C 2146.131 582.894, 2137.437 569.980, 2131.307 561.640 C 2128.938 558.417, 2127 555.169, 2127 554.423 C 2127 553.677, 2125.537 551.581, 2123.750 549.764 C 2121.963 547.948, 2118.700 542.870, 2116.500 538.481 C 2114.300 534.091, 2112.153 530.347, 2111.730 530.160 C 2111.306 529.973, 2110.153 528.150, 2109.166 526.108 C 2107.535 522.732, 2105.670 520.171, 2094.522 506 C 2092.575 503.525, 2090.027 499.475, 2088.860 497 C 2087.693 494.525, 2084.860 490.250, 2082.564 487.500 C 2080.268 484.750, 2077.311 480.925, 2075.992 479 C 2073.291 475.057, 2064.163 464.380, 2059.250 459.417 C 2057.463 457.612, 2055.983 455.767, 2055.963 455.317 C 2055.914 454.254, 2045.474 443, 2044.536 443 C 2044.142 443, 2041.497 441.033, 2038.659 438.628 C 2035.822 436.224, 2031.979 433.411, 2030.119 432.378 C 2023.697 428.810, 2022.727 428.177, 2022.081 427.131 C 2020.989 425.365, 2010.633 421.218, 2004.464 420.078 C 1997.601 418.809, 1983.184 418.822, 1977.500 420.101 M 242.500 435.241 C 238.100 435.753, 233.600 436.571, 232.500 437.057 C 231.400 437.544, 226 438.628, 220.500 439.466 C 200.136 442.569, 191.248 444.847, 188.179 447.750 C 187.452 448.438, 186.274 449, 185.562 449 C 182.529 449, 168.454 455.287, 166.500 457.514 C 165.950 458.141, 162.850 459.519, 159.612 460.577 C 155.416 461.947, 152.996 463.454, 151.190 465.821 C 149.796 467.647, 146.514 470.226, 143.897 471.552 C 141.280 472.878, 138.545 474.759, 137.820 475.732 C 137.094 476.705, 134.700 478.803, 132.500 480.394 C 123.910 486.606, 107.623 502.917, 100.671 512.269 C 99.130 514.342, 96.714 517.267, 95.302 518.769 C 93.890 520.271, 92.158 522.850, 91.452 524.500 C 90.747 526.150, 88.538 530.200, 86.544 533.500 C 84.550 536.800, 82.212 541.975, 81.349 545 C 80.486 548.025, 78.422 552.904, 76.764 555.842 C 75.105 558.780, 73.356 562.830, 72.877 564.842 C 71.761 569.526, 69.351 581.421, 68.553 586.177 C 68.214 588.200, 67.523 590, 67.018 590.177 C 66.513 590.355, 65.647 594.550, 65.094 599.500 C 64.540 604.450, 63.573 612.100, 62.944 616.500 C 61.168 628.931, 63.840 663.546, 67.014 669.216 C 68.224 671.377, 69.908 677.949, 70.987 684.720 C 72.112 691.774, 74.924 700.258, 76.577 701.584 C 77.320 702.180, 79.293 706.370, 80.961 710.894 C 83.995 719.122, 85.509 722.441, 87.139 724.437 C 87.616 725.022, 89.645 727.975, 91.648 731 C 93.650 734.025, 96.123 737.305, 97.143 738.288 C 98.164 739.272, 99.883 741.810, 100.964 743.929 C 102.045 746.048, 104.007 748.618, 105.325 749.641 C 106.642 750.663, 109.155 753.638, 110.908 756.250 C 112.661 758.862, 114.637 761.002, 115.298 761.005 C 115.959 761.007, 118.154 762.470, 120.175 764.255 C 122.196 766.040, 125.471 768.625, 127.452 770 C 129.433 771.375, 133.854 774.712, 137.277 777.415 C 150.527 787.880, 163.209 795.404, 177 800.982 C 180.025 802.205, 183.400 803.610, 184.500 804.103 C 189.979 806.559, 204.287 810.890, 210.500 811.974 C 214.350 812.645, 218.246 813.578, 219.157 814.048 C 220.068 814.517, 228.617 815.679, 238.155 816.631 C 253.447 818.157, 257.149 818.207, 269.498 817.054 C 292.404 814.914, 293 814.838, 293 814.046 C 293 813.627, 295.619 813.011, 298.820 812.677 C 308.385 811.677, 314.551 809.763, 328.651 803.418 C 330.384 802.638, 332.246 802, 332.789 802 C 334.676 802, 347 795.805, 347 794.857 C 347 794.332, 348.689 793.137, 350.752 792.201 C 352.816 791.265, 355.745 789.600, 357.261 788.500 C 368.646 780.241, 376.020 774.335, 383.385 767.577 C 388.079 763.269, 392.838 759.101, 393.960 758.315 C 395.082 757.530, 396.001 756.350, 396.002 755.693 C 396.003 755.037, 397.915 752.706, 400.252 750.514 C 402.588 748.321, 405.278 744.946, 406.229 743.014 C 407.180 741.081, 409.543 737.313, 411.479 734.641 C 414.607 730.324, 414.998 729.097, 414.978 723.641 C 414.955 717.233, 412.691 710.637, 409.651 708.121 C 408.734 707.363, 406.821 704.604, 405.398 701.990 C 403.975 699.376, 401.828 696.711, 400.627 696.068 C 399.426 695.425, 397.877 693.620, 397.185 692.056 C 396.493 690.492, 394.931 688.128, 393.713 686.802 C 392.496 685.477, 390.220 682.530, 388.655 680.255 C 383.930 673.384, 375.609 673.175, 371.928 679.834 C 368.208 686.565, 367.201 688.482, 366.013 691.089 C 364.837 693.672, 350.974 712.252, 345.098 719.122 C 343.394 721.113, 341.974 723.138, 341.943 723.622 C 341.878 724.627, 335.765 729.596, 322.855 739.138 C 313.991 745.690, 311.048 747.142, 299.750 750.543 C 296.587 751.495, 294 752.564, 294 752.919 C 294 753.670, 288.198 755.405, 279 757.405 C 269.344 759.504, 257.377 760.028, 242.833 758.988 C 230.570 758.112, 214.194 754.731, 212.924 752.814 C 212.607 752.336, 209.007 751.033, 204.924 749.918 C 195.852 747.442, 194.376 746.752, 185.326 740.754 C 181.381 738.140, 177.705 736, 177.158 736 C 176.610 736, 174.677 734.425, 172.861 732.500 C 171.045 730.575, 169.080 729, 168.493 729 C 166.979 729, 154 715.138, 154 713.522 C 154 712.786, 152.061 709.780, 149.691 706.842 C 145.040 701.074, 140 692.548, 140 690.445 C 140 689.729, 139.342 688.485, 138.537 687.680 C 135.704 684.847, 129.044 664.329, 129.012 658.333 C 129.005 657.142, 128.438 655.979, 127.750 655.750 C 126.067 655.190, 125.927 604.298, 127.606 603.214 C 128.214 602.821, 129.026 600.793, 129.409 598.706 C 132.149 583.809, 141.500 560.529, 147.367 554 C 148.602 552.625, 151.255 548.775, 153.261 545.444 C 159.819 534.557, 175.592 520.472, 189.628 512.966 C 193.958 510.651, 198.188 508.157, 199.029 507.423 C 200.537 506.108, 204.778 504.810, 220.500 500.848 C 224.900 499.739, 229.580 498.308, 230.900 497.666 C 234.365 495.983, 270.452 496.056, 272.148 497.750 C 272.837 498.438, 274.873 499, 276.674 499 C 283.803 499, 321.032 516.057, 325 521.141 C 325.275 521.493, 327.384 522.761, 329.686 523.958 C 331.988 525.156, 336.879 529.142, 340.554 532.818 C 356.882 549.148, 374 567.127, 374 567.947 C 374 568.439, 376.025 570.867, 378.500 573.342 C 380.975 575.817, 383 578.243, 383 578.734 C 383 579.224, 384.998 581.847, 387.440 584.563 C 389.882 587.278, 393.030 591.753, 394.436 594.507 C 395.842 597.261, 397.793 600.014, 398.771 600.625 C 399.749 601.236, 401.660 603.895, 403.017 606.533 C 404.374 609.172, 406.639 612.494, 408.050 613.915 C 409.461 615.337, 410.871 617.175, 411.182 618 C 411.493 618.825, 414.280 623.281, 417.374 627.903 C 420.468 632.525, 423 636.912, 423 637.653 C 423 638.394, 423.787 639.795, 424.750 640.767 C 427.816 643.861, 434.076 653.435, 436.346 658.500 C 437.085 660.150, 438.435 662.118, 439.345 662.872 C 440.255 663.627, 441 664.625, 441 665.089 C 441 666.042, 446.919 675.278, 451.774 681.900 C 453.548 684.320, 455 686.908, 455 687.650 C 455 688.393, 455.831 689.831, 456.846 690.846 C 457.861 691.861, 460.205 694.899, 462.055 697.596 C 463.904 700.293, 466.269 703.400, 467.310 704.500 C 471.140 708.545, 473.782 712.591, 474.925 716.162 C 475.569 718.175, 476.750 720.074, 477.548 720.380 C 478.347 720.687, 479 721.589, 479 722.385 C 479 723.182, 479.337 723.983, 479.750 724.167 C 480.163 724.350, 481.594 726.873, 482.932 729.774 C 484.270 732.675, 486.663 736.500, 488.251 738.274 C 489.838 740.048, 492.268 743.750, 493.650 746.500 C 495.032 749.250, 496.801 751.860, 497.581 752.300 C 498.362 752.740, 499 753.575, 499 754.157 C 499 754.738, 501.925 759.409, 505.500 764.537 C 509.075 769.664, 512 774.268, 512 774.768 C 512 775.267, 514.022 777.661, 516.492 780.088 C 518.963 782.515, 520.988 784.998, 520.992 785.606 C 521.003 787.205, 527.157 795.154, 536.429 805.544 C 548.449 819.013, 553.463 825.089, 553.823 826.624 C 554.001 827.381, 554.734 828, 555.451 828 C 556.168 828, 557.291 828.645, 557.945 829.434 C 559.238 830.992, 574.732 843, 575.449 843 C 575.691 843, 577.601 844.574, 579.694 846.497 C 586.117 852.399, 596.344 856.799, 607.569 858.491 C 620.069 860.375, 627.790 860.374, 635.800 858.485 C 644.186 856.508, 646.411 855.238, 653.576 848.341 C 664.701 837.633, 669.630 827.629, 667.655 819.762 C 666.948 816.943, 660.096 813, 655.905 813 C 654.307 813, 653 812.624, 653 812.165 C 653 811.705, 650.638 810.624, 647.750 809.763 C 630.645 804.660, 618.542 796.724, 602.738 780.250 C 599.968 777.362, 597.124 775, 596.419 775 C 595.713 775, 594.138 773.538, 592.919 771.750 C 591.700 769.962, 589.306 767.111, 587.601 765.412 C 581.933 759.769, 576 753.031, 576 752.237 C 576 751.806, 573.076 747.864, 569.503 743.477 C 565.929 739.090, 562.350 734.125, 561.548 732.445 C 560.747 730.766, 559.059 728.210, 557.796 726.766 C 556.533 725.322, 554.193 721.971, 552.595 719.320 C 547.133 710.259, 543.124 704.348, 541.562 703.051 C 540.703 702.338, 540 701.214, 540 700.552 C 540 699.890, 538.875 698.292, 537.500 697 C 536.125 695.708, 535 694.280, 535 693.826 C 535 693.372, 534.212 692.146, 533.250 691.101 C 528.612 686.070, 527.093 684.027, 523.510 678 C 521.385 674.425, 518.448 670.105, 516.984 668.399 C 515.520 666.693, 513.310 663.206, 512.072 660.649 C 510.834 658.092, 509.412 656, 508.911 656 C 508.410 656, 508 655.595, 508 655.100 C 508 654.167, 502.493 645.363, 499.180 641 C 498.136 639.625, 496.347 636.663, 495.206 634.418 C 494.064 632.173, 491.984 629.248, 490.583 627.918 C 489.181 626.588, 488.027 625.194, 488.017 624.821 C 487.990 623.731, 480.135 612.201, 478.900 611.438 C 478.282 611.056, 476.746 608.439, 475.486 605.622 C 474.226 602.805, 472.251 599.506, 471.097 598.292 C 469.944 597.077, 469 595.807, 469 595.468 C 469 594.867, 460.255 581.974, 455.117 575 C 453.698 573.075, 451.517 570.509, 450.269 569.298 C 449.021 568.087, 448 566.455, 448 565.672 C 448 564.238, 437.841 550.880, 429.504 541.352 C 427.027 538.521, 425 535.764, 425 535.225 C 425 534.686, 424.268 533.637, 423.373 532.895 C 422.479 532.152, 420.321 529.428, 418.579 526.842 C 410.717 515.167, 385.382 488.099, 382.250 488.028 C 381.563 488.013, 380.995 487.438, 380.989 486.750 C 380.983 486.063, 378.687 483.925, 375.886 482 C 373.086 480.075, 369.568 477.248, 368.070 475.717 C 366.572 474.186, 363.581 472.004, 361.423 470.868 C 359.265 469.733, 355.925 467.337, 354 465.545 C 346.803 458.846, 335.550 452.579, 325.094 449.447 C 321.742 448.443, 319 447.257, 319 446.811 C 319 446.365, 318.303 446, 317.450 446 C 316.598 446, 314.608 445.332, 313.029 444.515 C 311.449 443.698, 303.259 441.845, 294.829 440.396 C 286.398 438.948, 278.600 437.396, 277.500 436.948 C 275.487 436.127, 254.794 433.859, 252 434.152 C 251.175 434.239, 246.900 434.729, 242.500 435.241" stroke="none" fill="#cccc6c" fill-rule="evenodd"/></svg>